<svg width="106" height="43" viewBox="0 0 106 43" fill="none" xmlns="http://www.w3.org/2000/svg">
<path d="M28.5078 23.9375V2.1875H30.1953V23.9375C30.1953 26.3125 29.2578 28.3438 27.3828 30.0312C25.5078 31.7188 23.2578 32.5625 20.6328 32.5625C18.0078 32.5625 15.7578 31.7188 13.8828 30.0312C12.0078 28.3438 11.0703 26.3125 11.0703 23.9375V2.1875H12.7578V23.9375C12.7578 25.8438 13.5234 27.4766 15.0547 28.8359C16.6016 30.1953 18.4609 30.875 20.6328 30.875C22.8047 30.875 24.6562 30.1953 26.1875 28.8359C27.7344 27.4766 28.5078 25.8438 28.5078 23.9375ZM31.8828 23.9375V2.1875H33.5703V23.9375C33.5703 25.5625 33.2266 27.1172 32.5391 28.6016C31.8516 30.0703 30.9297 31.3438 29.7734 32.4219C28.6172 33.5 27.2422 34.3594 25.6484 35C24.0547 35.625 22.3828 35.9375 20.6328 35.9375C18.8828 35.9375 17.2109 35.625 15.6172 35C14.0234 34.3594 12.6484 33.5 11.4922 32.4219C10.3359 31.3438 9.41406 30.0703 8.72656 28.6016C8.03906 27.1172 7.69531 25.5625 7.69531 23.9375V2.1875H9.38281V23.9375C9.38281 25.7969 9.88281 27.5234 10.8828 29.1172C11.8984 30.6953 13.2656 31.9453 14.9844 32.8672C16.7188 33.7891 18.6016 34.25 20.6328 34.25C22.6641 34.25 24.5391 33.7891 26.2578 32.8672C27.9922 31.9453 29.3594 30.6953 30.3594 29.1172C31.375 27.5234 31.8828 25.7969 31.8828 23.9375ZM35.2578 23.9375V2.1875H36.9453V23.9375C36.9453 26.0156 36.5078 28.0078 35.6328 29.9141C34.7734 31.8047 33.6172 33.4375 32.1641 34.8125C30.7109 36.1875 28.9766 37.2812 26.9609 38.0938C24.9453 38.9062 22.8359 39.3125 20.6328 39.3125C18.4297 39.3125 16.3203 38.9062 14.3047 38.0938C12.2891 37.2812 10.5547 36.1875 9.10156 34.8125C7.64844 33.4375 6.48438 31.8047 5.60938 29.9141C4.75 28.0078 4.32031 26.0156 4.32031 23.9375V2.1875H6.00781V23.9375C6.00781 26.4062 6.66406 28.6953 7.97656 30.8047C9.28906 32.8984 11.0625 34.5625 13.2969 35.7969C15.5469 37.0156 17.9922 37.625 20.6328 37.625C23.2734 37.625 25.7109 37.0156 27.9453 35.7969C30.1953 34.5625 31.9766 32.8984 33.2891 30.8047C34.6016 28.6953 35.2578 26.4062 35.2578 23.9375ZM38.6328 23.9375V2.1875H40.3203V23.9375C40.3203 27.3125 39.4375 30.4453 37.6719 33.3359C35.9062 36.2109 33.5078 38.4922 30.4766 40.1797C27.4609 41.8516 24.1797 42.6875 20.6328 42.6875C17.0859 42.6875 13.7969 41.8516 10.7656 40.1797C7.75 38.4922 5.35938 36.2109 3.59375 33.3359C1.82812 30.4453 0.945312 27.3125 0.945312 23.9375V2.1875H2.63281V23.9375C2.63281 26.2344 3.10938 28.4375 4.0625 30.5469C5.01562 32.6562 6.29688 34.4766 7.90625 36.0078C9.51562 37.5234 11.4297 38.7344 13.6484 39.6406C15.8828 40.5469 18.2109 41 20.6328 41C23.0547 41 25.375 40.5469 27.5938 39.6406C29.8281 38.7344 31.75 37.5234 33.3594 36.0078C34.9688 34.4766 36.25 32.6562 37.2031 30.5469C38.1562 28.4375 38.6328 26.2344 38.6328 23.9375ZM71.5742 12.875H73.293L55.3633 41H53.6055L71.5742 12.875ZM68.0977 12.875H69.8164L51.8672 41H50.1484L68.0977 12.875ZM64.6211 12.875H66.3594L48.4102 41H46.6719L64.6211 12.875ZM61.1445 12.875H62.9023L44.9336 41H43.2148L61.1445 12.875ZM52.5508 24.8086L51.6914 26.1758L43.2148 12.875H44.9336L52.5508 24.8086ZM58.7031 37.1523L59.5625 35.7852L62.9023 41H61.1445L58.7031 37.1523ZM54.2891 22.0938L53.4297 23.4414L46.6914 12.875H48.4102L54.2891 22.0938ZM60.4414 34.418L61.3008 33.0703L66.3594 41H64.6406L60.4414 34.418ZM56.0273 19.3594L55.168 20.7266L50.1484 12.875H51.8867L56.0273 19.3594ZM62.1602 31.7031L63.0391 30.3359L69.8359 41H68.0977L62.1602 31.7031ZM57.7656 16.6445L56.8867 18.0117L53.6055 12.875H55.3633L57.7656 16.6445ZM63.8984 28.9883L64.7773 27.6406L73.293 41H71.5742L63.8984 28.9883ZM91.9141 17.375H89.0781C87.875 17.375 87.0078 17.0703 86.4766 16.4609C85.9453 15.8359 85.6797 15.0156 85.6797 14C85.6797 11.75 87.3594 10.625 90.7188 10.625C93.875 10.625 96.25 11.0938 97.8438 12.0312L96.4844 13.0625C95.3906 12.5625 93.4688 12.3125 90.7188 12.3125C89.375 12.3125 88.4688 12.4609 88 12.7578C87.5469 13.0547 87.3203 13.4688 87.3203 14C87.3203 14.5312 87.4453 14.9453 87.6953 15.2422C87.9453 15.5391 88.4062 15.6875 89.0781 15.6875H91.9844C94.0938 15.6875 95.9922 16.0469 97.6797 16.7656C99.3828 17.4844 100.781 18.4688 101.875 19.7188C102.969 20.9531 103.805 22.3828 104.383 24.0078C104.961 25.6172 105.25 27.3438 105.25 29.1875C105.25 30.6875 105.039 32.1094 104.617 33.4531C104.195 34.7969 103.555 36.0312 102.695 37.1562C101.852 38.2812 100.828 39.2578 99.625 40.0859C98.4375 40.8984 97.0156 41.5312 95.3594 41.9844C93.7188 42.4531 91.9375 42.6875 90.0156 42.6875C87 42.6875 84.1719 42.2266 81.5312 41.3047C78.9062 40.3984 76.7188 39.125 74.9688 37.4844L76.3281 36.4766C77.9219 37.9141 79.9141 39.0312 82.3047 39.8281C84.7109 40.6094 87.2812 41 90.0156 41C92.1562 41 94.0859 40.6953 95.8047 40.0859C97.5391 39.4609 98.9609 38.6094 100.07 37.5312C101.195 36.4531 102.055 35.2031 102.648 33.7812C103.258 32.3594 103.562 30.8281 103.562 29.1875C103.562 27.0156 103.125 25.0547 102.25 23.3047C101.375 21.5391 100.039 20.1094 98.2422 19.0156C96.4609 17.9219 94.3516 17.375 91.9141 17.375ZM89.0781 19.0625H91.75C94.9219 19.0625 97.3984 20.0312 99.1797 21.9688C100.977 23.9062 101.875 26.3125 101.875 29.1875C101.875 32.1094 100.836 34.5312 98.7578 36.4531C96.6797 38.3594 93.7656 39.3125 90.0156 39.3125C87.5156 39.3125 85.1797 38.9688 83.0078 38.2812C80.8359 37.5938 79.0312 36.625 77.5938 35.375L78.9062 34.3203C80.1875 35.3672 81.7969 36.1797 83.7344 36.7578C85.6875 37.3359 87.7812 37.625 90.0156 37.625C93.3125 37.625 95.8281 36.8359 97.5625 35.2578C99.3125 33.6797 100.188 31.6562 100.188 29.1875C100.188 26.75 99.4531 24.7344 97.9844 23.1406C96.5312 21.5469 94.4453 20.75 91.7266 20.75H89.0781C86.7969 20.75 85.0859 20.125 83.9453 18.875C82.8047 17.625 82.2344 16 82.2344 14C82.2344 12 82.9375 10.375 84.3438 9.125C85.7656 7.875 87.8906 7.25 90.7188 7.25C92.7031 7.25 94.5469 7.48438 96.25 7.95312C97.9531 8.40625 99.3594 9.0625 100.469 9.92188L99.1328 10.9531C97.1797 9.60938 94.375 8.9375 90.7188 8.9375C88.3594 8.9375 86.6328 9.40625 85.5391 10.3438C84.4609 11.2656 83.9219 12.4844 83.9219 14C83.9219 15.5312 84.3203 16.7578 85.1172 17.6797C85.9297 18.6016 87.25 19.0625 89.0781 19.0625ZM89.0781 22.4375H91.6562C93.9375 22.4375 95.6484 23.0703 96.7891 24.3359C97.9297 25.6016 98.5 27.2188 98.5 29.1875C98.5 31.1875 97.7891 32.8125 96.3672 34.0625C94.9609 35.3125 92.8438 35.9375 90.0156 35.9375C88.0312 35.9375 86.1797 35.7109 84.4609 35.2578C82.7578 34.7891 81.3516 34.125 80.2422 33.2656L81.5781 32.2344C83.5312 33.5781 86.3438 34.25 90.0156 34.25C92.375 34.25 94.0938 33.7891 95.1719 32.8672C96.2656 31.9297 96.8125 30.7031 96.8125 29.1875C96.8125 27.6719 96.4062 26.4531 95.5938 25.5312C94.7812 24.5938 93.4609 24.125 91.6328 24.125H89.0781C85.875 24.125 83.3672 23.1719 81.5547 21.2656C79.7578 19.3438 78.8594 16.9219 78.8594 14C78.8594 11.0781 79.8984 8.66406 81.9766 6.75781C84.0547 4.83594 86.9688 3.875 90.7188 3.875C93.2188 3.875 95.5469 4.21875 97.7031 4.90625C99.875 5.59375 101.68 6.5625 103.117 7.8125L101.805 8.86719C100.523 7.82031 98.9141 7.00781 96.9766 6.42969C95.0391 5.85156 92.9531 5.5625 90.7188 5.5625C87.4219 5.5625 84.8984 6.35156 83.1484 7.92969C81.4141 9.50781 80.5469 11.5312 80.5469 14C80.5469 16.4531 81.2812 18.4766 82.75 20.0703C84.2188 21.6484 86.3281 22.4375 89.0781 22.4375ZM89.0781 25.8125H91.6562C92.8594 25.8125 93.7266 26.125 94.2578 26.75C94.7891 27.375 95.0547 28.1875 95.0547 29.1875C95.0547 31.4375 93.375 32.5625 90.0156 32.5625C86.8438 32.5625 84.4609 32.0938 82.8672 31.1562L84.2266 30.125C85.3203 30.625 87.25 30.875 90.0156 30.875C91.3594 30.875 92.2578 30.7266 92.7109 30.4297C93.1797 30.1328 93.4141 29.7188 93.4141 29.1875C93.4141 28.6719 93.2812 28.2656 93.0156 27.9688C92.7656 27.6562 92.2969 27.5 91.6094 27.5H89.0781C86.9219 27.5 84.9688 27.1484 83.2188 26.4453C81.4844 25.7422 80.0547 24.7734 78.9297 23.5391C77.8203 22.3047 76.9688 20.875 76.375 19.25C75.7812 17.625 75.4844 15.875 75.4844 14C75.4844 12.5 75.6953 11.0781 76.1172 9.73438C76.5391 8.39062 77.1719 7.15625 78.0156 6.03125C78.875 4.90625 79.8984 3.9375 81.0859 3.125C82.2891 2.29688 83.7109 1.65625 85.3516 1.20312C87.0078 0.734375 88.7969 0.5 90.7188 0.5C93.7344 0.5 96.5547 0.960938 99.1797 1.88281C101.805 2.78906 103.992 4.0625 105.742 5.70312L104.383 6.71094C102.789 5.27344 100.797 4.16406 98.4062 3.38281C96.0156 2.58594 93.4531 2.1875 90.7188 2.1875C88.5781 2.1875 86.6406 2.5 84.9062 3.125C83.1875 3.73438 81.7656 4.57812 80.6406 5.65625C79.5312 6.73438 78.6719 7.98438 78.0625 9.40625C77.4688 10.8281 77.1719 12.3594 77.1719 14C77.1719 16.2031 77.6172 18.1875 78.5078 19.9531C79.3984 21.7188 80.7578 23.1406 82.5859 24.2188C84.4141 25.2812 86.5781 25.8125 89.0781 25.8125Z" fill="black"/>
</svg>
